<svg width="383" height="820" viewBox="0 0 383 820" fill="none" xmlns="http://www.w3.org/2000/svg">
<g clip-path="url(#clip0_)" filter="url(#filter0_d_)">
<path d="M379 0H4V812H379V0Z" fill="#202024"/>
<path d="M282 -201C116.315 -201 -18 -66.6854 -18 99C-18 264.685 116.315 399 282 399C447.685 399 582 264.685 582 99C582 -66.6854 447.685 -201 282 -201Z" fill="url(#paint0_radial_)"/>
<path d="M102 -201C-63.6854 -201 -198 -66.6854 -198 99C-198 264.685 -63.6854 399 102 399C267.685 399 402 264.685 402 99C402 -66.6854 267.685 -201 102 -201Z" fill="url(#paint1_radial_)"/>
<mask id="mask0_" style="mask-type:alpha" maskUnits="userSpaceOnUse" x="4" y="0" width="375" height="812">
<path d="M379 0H4V812H379V0Z" fill="#202024"/>
</mask>
<g mask="url(#mask0_)">
<path d="M379 168.101V-310.699L191.478 -418.486L3.95532 -310.699V168.101L191.478 275.894L379 168.101Z" fill="url(#paint2_linear_)"/>
<g style="mix-blend-mode:luminosity" opacity="0.4">
<path style="mix-blend-mode:luminosity" opacity="0.4" d="M5.83661 61.3931V168.797L99.1275 222.505L192.418 168.797V61.3931L99.1275 7.68582L5.83661 61.3931Z" fill="url(#paint3_linear_)"/>
<path style="mix-blend-mode:luminosity" opacity="0.4" d="M5.83661 -46.0166V61.3877L99.1275 115.095L192.418 61.3877V-46.0166L99.1275 -99.7239L5.83661 -46.0166Z" fill="url(#paint4_linear_)"/>
<path style="mix-blend-mode:luminosity" opacity="0.4" d="M285.709 -99.6961V7.70825L192.418 61.4155L99.1274 7.70825V-99.6961L192.418 -153.403L285.709 -99.6961Z" fill="url(#paint5_linear_)"/>
<path style="mix-blend-mode:luminosity" opacity="0.4" d="M192.418 168.797V61.3927L285.709 7.68542L379 61.3927V168.797L285.709 222.504L192.418 168.797Z" fill="url(#paint6_linear_)"/>
<path style="mix-blend-mode:luminosity" opacity="0.4" d="M379 -46.0166V61.3877L285.709 115.095L192.418 61.3877V-46.0166L285.709 -99.7239L379 -46.0166Z" fill="url(#paint7_linear_)"/>
<path style="mix-blend-mode:luminosity" opacity="0.4" d="M285.709 222.527V115.123L192.418 61.4155L99.1274 115.123V222.527L192.418 276.234L285.709 222.527Z" fill="url(#paint8_linear_)"/>
</g>
</g>
</g>
<defs>
<filter id="filter0_d_" x="0" y="0" width="383" height="820" filterUnits="userSpaceOnUse" color-interpolation-filters="sRGB">
<feFlood flood-opacity="0" result="BackgroundImageFix"/>
<feColorMatrix in="SourceAlpha" type="matrix" values="0 0 0 0 0 0 0 0 0 0 0 0 0 0 0 0 0 0 127 0" result="hardAlpha"/>
<feOffset dy="4"/>
<feGaussianBlur stdDeviation="2"/>
<feComposite in2="hardAlpha" operator="out"/>
<feColorMatrix type="matrix" values="0 0 0 0 0 0 0 0 0 0 0 0 0 0 0 0 0 0 0.25 0"/>
<feBlend mode="normal" in2="BackgroundImageFix" result="effect1_dropShadow_"/>
<feBlend mode="normal" in="SourceGraphic" in2="effect1_dropShadow_" result="shape"/>
</filter>
<radialGradient id="paint0_radial_" cx="0" cy="0" r="1" gradientUnits="userSpaceOnUse" gradientTransform="translate(282 99) rotate(-90) scale(300)">
<stop stop-color="#00B2FF"/>
<stop offset="1" stop-color="#121214" stop-opacity="0"/>
</radialGradient>
<radialGradient id="paint1_radial_" cx="0" cy="0" r="1" gradientUnits="userSpaceOnUse" gradientTransform="translate(102 99) rotate(-90) scale(300)">
<stop offset="0.125" stop-color="#FF0404" stop-opacity="0.559156"/>
<stop offset="0.1251" stop-color="#0F8F1C"/>
<stop offset="1" stop-opacity="0"/>
</radialGradient>
<linearGradient id="paint2_linear_" x1="-63.9497" y1="58.9386" x2="440.115" y2="232.357" gradientUnits="userSpaceOnUse">
<stop stop-color="#42FF00"/>
<stop offset="1" stop-color="#00D1FF"/>
</linearGradient>
<linearGradient id="paint3_linear_" x1="99.1275" y1="217.565" x2="6.2383" y2="59.0471" gradientUnits="userSpaceOnUse">
<stop stop-color="white"/>
<stop offset="1" stop-color="#00FFD1"/>
</linearGradient>
<linearGradient id="paint4_linear_" x1="99.1275" y1="110.155" x2="6.23829" y2="-48.3627" gradientUnits="userSpaceOnUse">
<stop stop-color="#42FF00"/>
<stop offset="0.989583" stop-color="#00B2FF"/>
</linearGradient>
<linearGradient id="paint5_linear_" x1="192.418" y1="-153.403" x2="192.418" y2="61.4155" gradientUnits="userSpaceOnUse">
<stop stop-color="white"/>
<stop offset="1" stop-color="#00F0FF" stop-opacity="0"/>
</linearGradient>
<linearGradient id="paint6_linear_" x1="379" y1="174.833" x2="192.706" y2="62.4152" gradientUnits="userSpaceOnUse">
<stop stop-color="#4865CB" stop-opacity="0"/>
<stop offset="1" stop-color="white"/>
</linearGradient>
<linearGradient id="paint7_linear_" x1="285.709" y1="110.155" x2="378.598" y2="-48.3627" gradientUnits="userSpaceOnUse">
<stop stop-color="#61FF00"/>
<stop offset="1" stop-color="#00F0FF"/>
</linearGradient>
<linearGradient id="paint8_linear_" x1="192.418" y1="66.3552" x2="285.307" y2="224.873" gradientUnits="userSpaceOnUse">
<stop stop-color="white"/>
<stop offset="1" stop-color="#00D1FF"/>
</linearGradient>
<clipPath id="clip0_">
<rect width="375" height="812" fill="white" transform="translate(4)"/>
</clipPath>
</defs>
</svg>
